<?xml version="1.0" encoding="utf-8"?>
<!-- Generator: Adobe Illustrator 16.0.0, SVG Export Plug-In . SVG Version: 6.00 Build 0)  -->
<!DOCTYPE svg PUBLIC "-//W3C//DTD SVG 1.1//EN" "http://www.w3.org/Graphics/SVG/1.1/DTD/svg11.dtd">
<svg version="1.1" id="Layer_1" xmlns="http://www.w3.org/2000/svg" xmlns:xlink="http://www.w3.org/1999/xlink" x="0px" y="0px"
	 width="2548.35px" height="3401.57px" viewBox="0 0 2548.35 3401.57" enable-background="new 0 0 2548.35 3401.57"
	 xml:space="preserve">
<g>
	<title>all</title>
	<g>
		<g>
			<g>
				<g>
					<g>
						<g>
							<g>
								<g>
									<g>
										<g>
											<g>
												<g>
													<g>
														<g>
															<g>
																<path d="M1272.763,1130.068h-1.389c-136.062,0.334-246.096,112.604-245.767,250.762
																	s110.895,249.887,246.957,249.554h0.893c135.017,1.115,245.359-109.119,246.46-246.215
																	c0.009-1.247,0.01-2.495,0.001-3.742C1519.427,1242.129,1408.963,1130.234,1272.763,1130.068z M1273.358,1569.936
																	h-0.595c-103.184,0.389-187.141-84.23-187.524-189.004c-0.384-104.773,82.952-190.024,186.135-190.414l0,0h1.091
																	c103.183-0.278,187.051,84.432,187.326,189.205s-83.149,189.935-186.334,190.213l0,0H1273.358z"/>
																<path d="M1769.853,1344.159c-15.678-56.352-31.388-112.704-47.13-169.056c-6.053-21.56-7.739-22.567-29.766-23.978
																	c-33.238-2.116-66.478-4.332-99.219-7.052c-18.357-1.511-17.96-1.914-15.876-20.15
																	c4.961-41.709,9.129-83.621,13.891-126.842c-0.507-7.121-5.217-13.217-11.905-15.414
																	c-54.175-26.867-108.282-53.9-162.324-81.103c-3.246-1.748-6.844-2.714-10.517-2.821
																	c-5.477,0.151-10.647,2.594-14.287,6.75c-31.354,31.031-63.104,61.557-94.457,92.587
																	c-3.288,5.064-9.995,6.462-14.982,3.124c-1.224-0.819-2.27-1.881-3.076-3.124
																	c-33.933-34.053-68.263-67.602-102.395-101.453c-3.601-4.833-8.964-7.991-14.883-8.765
																	c-4.222,0.336-8.32,1.609-12.006,3.728c-54.272,26.396-108.049,53.094-162.124,79.188
																	c-8.52,3.444-13.284,12.691-11.212,21.762c4.763,44.43,8.93,89.062,13.792,133.492
																	c1.899,5.633-1.06,11.762-6.606,13.689c-1.479,0.514-3.052,0.69-4.605,0.516
																	c-48.221,6.246-96.342,13.097-144.563,20.149c-8.771,0.365-16.014,7.081-17.165,15.918
																	c-12.601,58.837-25.301,117.976-37.902,177.317c-3.076,14.709-1.389,18.235,10.814,26.194l109.142,69.718
																	c9.922,6.146,9.922,8.06,4.267,18.235L833.022,1592.1c-7.144,12.392-6.747,16.522,2.282,27.504l114.102,139.133
																	c2.96,5.205,8.201,8.652,14.089,9.268c3.608-0.168,7.164-0.951,10.517-2.317l120.353-44.328
																	c3.503-1.559,7.215-2.577,11.014-3.022c4.167,0,5.754,3.324,9.128,11.889
																	c17.264,43.925,34.727,87.852,51.495,131.979c2.657,10.466,12.304,17.506,22.92,16.726l0,0
																	c58.836,0,117.574,0,176.412,0c15.378,0,18.355-2.62,23.019-17.631c13.494-43.523,27.087-87.047,40.283-130.973
																	c0.336-5.026,4.276-9.028,9.228-9.37c1.923,0.056,3.828,0.396,5.655,1.008
																	c44.648,13.601,89.297,26.598,134.144,40.299c4.709,1.659,9.613,2.676,14.586,3.023
																	c6.747,0,10.418-3.83,17.66-13.804l103.288-143.263c7.839-10.881,7.839-15.314,0-26.798
																	c-24.21-36.572-48.22-73.245-72.728-109.716c-4.287-4.459-4.202-11.604,0.19-15.956
																	c1.029-1.021,2.245-1.83,3.579-2.379c38.895-27.907,77.491-56.318,116.187-84.628
																	C1771.34,1360.479,1773.126,1355.845,1769.853,1344.159z M1700.397,1337.61
																	c-29.766,21.762-60.523,44.329-90.885,66.091c-32.399,20.849-42.021,64.42-21.487,97.319
																	c1.013,1.624,2.092,3.204,3.231,4.738c17.462,25.892,35.024,52.591,51.99,78.281l6.252,9.471l-74.713,104.274
																	l-25.399-7.455c-29.071-8.563-59.532-17.43-88.405-26.396c-7.362-2.302-15.019-3.491-22.721-3.526
																	c-31.14,0.055-58.307,21.469-66.08,52.086c-9.922,32.944-20.341,66.493-30.461,98.834l-2.083,6.75h-126.504
																	c-9.922-26.094-19.844-52.086-30.262-77.476l-12.998-33.045c-16.173-41.307-43.954-50.374-64.492-50.374
																	c-10.763,0.257-21.389,2.511-31.354,6.65l-39.688,14.608l-55.959,20.149l-81.261-99.136l25.301-44.027l34.032-59.24
																	c21.928-38.183,12.7-76.467-24.011-99.841l-60.821-37.68l-27.683-17.731l4.664-22.77
																	c7.342-34.322,14.619-68.677,21.828-103.065l25.698-3.526c29.767-4.131,60.92-8.463,91.282-12.392
																	c38.22-3.308,66.562-37.45,63.304-76.259c-0.122-1.452-0.288-2.898-0.499-4.339
																	c-2.48-22.669-4.762-45.337-7.044-68.005c-1.256-12.694-2.546-25.389-3.87-38.083l69.454-33.952l45.244-22.266
																	l5.06,4.937c26.194,25.792,53.182,52.49,79.375,78.886c26.19,28.457,70.141,29.967,98.167,3.374
																	c1.078-1.023,2.124-2.082,3.137-3.173c15.478-15.313,31.022-30.56,46.632-45.739l28.675-27.807l113.904,56.923
																	v4.534c-3.274,30.224-6.449,59.239-9.923,88.457v1.007c-4.446,21.454,0.514,43.812,13.594,61.254
																	c14.396,16.503,35.144,25.841,56.854,25.59c27.781,2.217,56.058,4.231,81.855,5.844
																	c11.179,41.105,22.489,82.412,33.933,123.92L1700.397,1337.61z"/>
															</g>
														</g>
													</g>
												</g>
											</g>
										</g>
									</g>
								</g>
							</g>
						</g>
					</g>
				</g>
			</g>
		</g>
	</g>
</g>
<g>
	<path fill="#777777" d="M2532.423,2215.764l-212.363-212.362c-122.107-122.108-201.744-281.38-222.98-445.961
		c-10.618-84.944-58.399-159.271-127.417-212.362c-100.872-74.327-249.526-79.636-355.708-10.618
		c-10.617-69.018-42.472-138.036-95.562-191.126c-53.091-53.091-116.799-84.945-191.126-95.563
		c69.018-106.181,63.708-249.525-10.618-355.707c-53.091-69.018-127.418-116.8-212.363-127.417
		c-164.58-21.236-323.853-100.873-445.961-222.981L445.961,129.303c-21.236-21.236-53.091-21.236-74.327,0L15.927,474.392
		C5.309,479.701,0,495.628,0,511.556c0,15.927,5.309,26.545,15.927,37.163L228.29,761.081
		c122.109,122.108,201.745,281.381,222.981,445.962c10.618,84.944,58.399,159.271,127.417,212.362
		c53.091,37.163,122.108,58.399,185.817,58.399l0,0c58.399,0,116.799-15.927,169.89-47.781
		c10.618,69.018,42.473,138.035,95.563,191.126s116.799,84.945,191.126,95.563c-69.018,106.181-63.708,249.525,10.618,355.707
		c53.091,69.018,127.418,116.799,212.363,127.417c164.58,21.236,323.852,100.872,445.961,222.98l212.362,212.362
		c10.618,10.619,21.236,15.928,37.163,15.928c15.928,0,26.545-5.309,37.164-15.928l350.397-350.397
		C2553.659,2274.164,2553.659,2237,2532.423,2215.764z M950.322,1270.751c-15.928,26.546-37.164,47.782-58.399,69.018
		c-69.019,53.091-175.199,53.091-249.526,0c-47.781-37.163-79.636-84.944-84.945-143.345
		c-26.545-191.126-116.799-366.325-254.835-509.67L127.417,511.556L398.18,240.793l175.199,175.199
		c138.035,138.035,318.544,228.29,509.67,254.835c58.399,5.31,106.181,37.163,143.345,84.945c53.09,74.327,53.09,175.198,0,249.525
		c-15.928,26.546-42.473,47.782-63.709,58.4C1114.903,1074.316,998.104,1132.716,950.322,1270.751z M1109.594,1546.822
		c-122.108-127.417-47.781-260.144-42.473-265.453c137.046-231.923,335.462-110.5,376.944-69.018
		c122.107,132.727,47.781,260.145,42.472,265.453C1465.301,1530.896,1306.029,1722.021,1109.594,1546.822z M2144.861,2528.999
		L1969.662,2353.8c-138.036-138.036-318.544-228.29-509.67-254.835c-58.399-5.309-106.181-37.163-143.345-84.945
		c-53.091-74.326-53.091-175.198,0-249.525c15.928-26.546,42.473-47.781,63.709-58.4c175.199-84.944,191.126-164.58,212.362-207.053
		c15.927-26.545,37.163-47.781,58.399-69.018c37.164-26.546,132.727-74.327,249.526,0c47.781,37.163,79.636,84.944,84.944,143.345
		c26.546,191.126,116.8,366.325,254.835,509.67l175.199,175.198L2144.861,2528.999z"/>
</g>
</svg>
