<?xml version="1.0" encoding="utf-8"?>
<!-- Generator: Adobe Illustrator 16.0.0, SVG Export Plug-In . SVG Version: 6.00 Build 0)  -->
<!DOCTYPE svg PUBLIC "-//W3C//DTD SVG 1.1//EN" "http://www.w3.org/Graphics/SVG/1.1/DTD/svg11.dtd">
<svg version="1.1" id="Layer_1" xmlns="http://www.w3.org/2000/svg" xmlns:xlink="http://www.w3.org/1999/xlink" x="0px" y="0px"
	 width="2548.35px" height="3401.57px" viewBox="0 0 2548.35 3401.57" enable-background="new 0 0 2548.35 3401.57"
	 xml:space="preserve">
<g>
	<path d="M2532.423,2215.764l-212.363-212.362c-122.107-122.108-201.744-281.38-222.98-445.961
		c-10.618-84.944-58.399-159.271-127.417-212.362c-100.872-74.327-249.526-79.636-355.708-10.618
		c-10.617-69.018-42.472-138.036-95.562-191.126c-53.091-53.091-116.799-84.945-191.126-95.563
		c69.018-106.181,63.708-249.525-10.618-355.707c-53.091-69.018-127.418-116.8-212.363-127.417
		c-164.58-21.236-323.853-100.873-445.961-222.981L445.961,129.303c-21.236-21.236-53.091-21.236-74.327,0L15.927,474.392
		C5.309,479.701,0,495.628,0,511.556c0,15.927,5.309,26.545,15.927,37.163L228.29,761.081
		c122.109,122.108,201.745,281.381,222.981,445.962c10.618,84.944,58.399,159.271,127.417,212.362
		c53.091,37.163,122.108,58.399,185.817,58.399l0,0c58.399,0,116.799-15.927,169.89-47.781
		c10.618,69.018,42.473,138.035,95.563,191.126s116.799,84.945,191.126,95.563c-69.018,106.181-63.708,249.525,10.618,355.707
		c53.091,69.018,127.418,116.799,212.363,127.417c164.58,21.236,323.852,100.872,445.961,222.98l212.362,212.362
		c10.618,10.619,21.236,15.928,37.163,15.928c15.928,0,26.545-5.309,37.164-15.928l350.397-350.397
		C2553.659,2274.164,2553.659,2237,2532.423,2215.764z M950.322,1270.751c-15.928,26.546-37.164,47.782-58.399,69.018
		c-69.019,53.091-175.199,53.091-249.526,0c-47.781-37.163-79.636-84.944-84.945-143.345
		c-26.545-191.126-116.799-366.325-254.835-509.67L127.417,511.556L398.18,240.793l175.199,175.199
		c138.035,138.035,318.544,228.29,509.67,254.835c58.399,5.31,106.181,37.163,143.345,84.945c53.09,74.327,53.09,175.198,0,249.525
		c-15.928,26.546-42.473,47.782-63.709,58.4C1114.903,1074.316,998.104,1132.716,950.322,1270.751z M1109.594,1546.822
		c-122.108-127.417-47.781-260.144-42.473-265.453c138.036-233.599,334.472-111.49,376.944-69.018
		c122.107,132.727,47.781,260.145,42.472,265.453C1465.301,1530.896,1306.029,1722.021,1109.594,1546.822z M2144.861,2528.999
		L1969.662,2353.8c-138.036-138.036-318.544-228.29-509.67-254.835c-58.399-5.309-106.181-37.163-143.345-84.945
		c-53.091-74.326-53.091-175.198,0-249.525c15.928-26.546,42.473-47.781,63.709-58.4c175.199-84.944,191.126-164.58,212.362-207.053
		c15.927-26.545,37.163-47.781,58.399-69.018c37.164-26.546,132.727-74.327,249.526,0c47.781,37.163,79.636,84.944,84.944,143.345
		c26.546,191.126,116.8,366.325,254.835,509.67l175.199,175.198L2144.861,2528.999z"/>
</g>
<text transform="matrix(1 0 0 1 0.0127 3452.7852)" font-family="'HelveticaNeue-Bold'" font-size="265.4531">Created by Vectors Market</text>
<text transform="matrix(1 0 0 1 0.0127 3718.2227)" font-family="'HelveticaNeue-Bold'" font-size="265.4531">from the Noun Project</text>
</svg>
