<svg xmlns="http://www.w3.org/2000/svg" data-name="Layer 1" viewBox="0 0 100 125" x="0px" y="0px"><title>all</title><g><g><g data-name="Zoom In"><g data-name="Calendar"><g><g><g><g><g><g><g><g><g data-name="Play - Orange"><g data-name="Arrow Right - Orange"><g><path d="M49.75,24.91H49.61a24.83,24.83,0,0,0,.12,49.66h0.09A24.64,24.64,0,0,0,74.66,49.76,24.94,24.94,0,0,0,49.75,24.91Zm0.06,43.66H49.75a18.83,18.83,0,0,1-.14-37.66h0.11A18.83,18.83,0,1,1,49.82,68.57Z"/><path d="M99.85,46.16q-2.37-8.39-4.75-16.78c-0.61-2.14-.78-2.24-3-2.38-3.35-.21-6.7-0.43-10-0.7-1.85-.15-1.81-0.19-1.6-2C81,20.16,81.42,16,81.9,11.71a1.74,1.74,0,0,0-1.2-1.53q-8.19-4-16.36-8.05a2.41,2.41,0,0,0-1.06-.28,2,2,0,0,0-1.44.67c-3.16,3.08-6.36,6.11-9.52,9.19a1.09,1.09,0,0,1-1.82,0C47.08,8.33,43.62,5,40.18,1.64a2.24,2.24,0,0,0-1.5-.87,2.92,2.92,0,0,0-1.21.37C32,3.76,26.58,6.41,21.13,9A1.87,1.87,0,0,0,20,11.16c0.48,4.41.9,8.84,1.39,13.25a1.07,1.07,0,0,1-1.13,1.41c-4.86.62-9.71,1.3-14.57,2a1.82,1.82,0,0,0-1.73,1.58C2.69,35.24,1.41,41.11.14,47-0.17,48.46,0,48.81,1.23,49.6l11,6.92c1,0.61,1,.8.43,1.81L5.43,70.77c-0.72,1.23-.68,1.64.23,2.73l11.5,13.81a1.86,1.86,0,0,0,1.42.92A3.25,3.25,0,0,0,19.64,88l12.13-4.4a3.87,3.87,0,0,1,1.11-.3c0.42,0,.58.33,0.92,1.18,1.74,4.36,3.5,8.72,5.19,13.1a2.22,2.22,0,0,0,2.31,1.66h0c5.93,0,11.85,0,17.78,0,1.55,0,1.85-.26,2.32-1.75,1.36-4.32,2.73-8.64,4.06-13a1,1,0,0,1,.93-0.93,2,2,0,0,1,.57.1c4.5,1.35,9,2.64,13.52,4a5.67,5.67,0,0,0,1.47.3c0.68,0,1.05-.38,1.78-1.37L94.14,72.37c0.79-1.08.79-1.52,0-2.66-2.44-3.63-4.86-7.27-7.33-10.89A1.12,1.12,0,0,1,87.19,57c3.92-2.77,7.81-5.59,11.71-8.4C100,47.78,100.18,47.32,99.85,46.16Zm-7-.65c-3,2.16-6.1,4.4-9.16,6.56a7,7,0,0,0-1.84,10.13c1.76,2.57,3.53,5.22,5.24,7.77l0.63,0.94L80.19,81.26l-2.56-.74c-2.93-.85-6-1.73-8.91-2.62a7.9,7.9,0,0,0-2.29-.35,6.89,6.89,0,0,0-6.66,5.17c-1,3.27-2.05,6.6-3.07,9.81l-0.21.67H43.74c-1-2.59-2-5.17-3.05-7.69l-1.31-3.28c-1.63-4.1-4.43-5-6.5-5a8.9,8.9,0,0,0-3.16.66l-4,1.45-5.64,2-8.19-9.84,2.55-4.37,3.43-5.88c2.21-3.79,1.28-7.59-2.42-9.91L9.32,47.6,6.53,45.84,7,43.58q1.11-5.11,2.2-10.23L11.79,33c3-.41,6.14-0.84,9.2-1.23a7,7,0,0,0,6.33-8c-0.25-2.25-.48-4.5-0.71-6.75q-0.19-1.89-.39-3.78l7-3.37,4.56-2.21,0.51,0.49c2.64,2.56,5.36,5.21,8,7.83A7,7,0,0,0,56.5,16q2.34-2.28,4.7-4.54L64.09,8.7l11.48,5.65,0,0.45c-0.33,3-.65,5.88-1,8.78v0.1a7.49,7.49,0,0,0,1.37,6.08,7.54,7.54,0,0,0,5.73,2.54c2.8,0.22,5.65.42,8.25,0.58Q91.61,39,93.34,45.18Z"/></g></g></g></g></g></g></g></g></g></g></g></g></g></g></g><text x="0" y="115" fill="#000000" font-size="5px" font-weight="bold" font-family="'Helvetica Neue', Helvetica, Arial-Unicode, Arial, Sans-serif">Created by i cons</text><text x="0" y="120" fill="#000000" font-size="5px" font-weight="bold" font-family="'Helvetica Neue', Helvetica, Arial-Unicode, Arial, Sans-serif">from the Noun Project</text></svg>